<?xml version="1.0" encoding="UTF-8" standalone="no"?>
<!-- Created with Inkscape (http://www.inkscape.org/) -->
<svg id="svg8" xmlns="http://www.w3.org/2000/svg" height="100mm" width="100mm" version="1.1" xmlns:xlink="http://www.w3.org/1999/xlink" viewBox="0 0 100 100">
 <defs id="defs2">
  <linearGradient id="a" y2="197" gradientUnits="userSpaceOnUse" x2="0" y1="297" x1="100">
   <stop id="stop4685" stop-color="#79a0d1" offset="0"/>
   <stop id="stop4687" stop-color="#053f86" offset="1"/>
  </linearGradient>
 </defs>
 <g id="layer1" transform="translate(0,-197)">
  <rect id="rect3688" height="100" width="100" y="197" x="0" stroke-width=".34157" fill="url(#a)"/>
 </g>
 <g id="layer2">
  <path id="path31" fill="#002f68" d="m71.363 25.38c2.1899-0.85217 4.6551-0.7408 6.8725-0.04755 1.9884 0.60442 3.7929 1.7757 5.1769 3.3237 1.4716 1.6218 2.4952 3.5964 3.2511 5.6374 0.90724 2.1223 2.7793 3.654 4.7414 4.7702 1.867 1.11 4.0432 1.6405 5.7813 2.977 0.50305 0.4017 1.0324 0.89473 1.125 1.568 0.02629 0.33661-0.04257 0.79837-0.41045 0.92726-0.57688 0.17144-1.1875 0.05254-1.7657-0.03881-2.2174-0.42796-4.3285-1.2526-6.4671-1.9559-2.514-0.77334-5.1807-1.2726-7.811-0.89597-0.96105 0.14139-1.9108 0.39667-2.7906 0.81089-1.1012 0.54685-1.857 1.6793-1.9734 2.8994-0.15016 1.608 0.22651 3.1998 0.45675 4.7827 0.19271 1.6355 0.9185 3.1447 1.7081 4.57 0.45049 0.82841 1.0299 1.5817 1.4516 2.4277 0.69826 1.379 1.0649 2.9382 0.95354 4.4862-0.07509 0.84093-0.0851 1.6919-0.2703 2.5215-0.33787 1.6531-0.95104 3.236-1.633 4.7752-0.87095 1.9184-1.7607 3.8767-3.171 5.4697-0.65196 0.71578-1.4303 1.3865-2.3801 1.6543-1.2864 0.08134-2.5791 0.01376-3.8617-0.11011-0.7771-0.01253-1.5192-0.25528-2.28-0.37666-4.1395-0.73455-8.3692-0.22149-12.45 0.61691-3.5289 0.61443-7.0928 1.115-10.679 1.1663-4.6589-0.02251-9.3215 0.08885-13.975-0.15892-2.8932-0.04507-5.7863-0.23776-8.6582-0.58064-1.5142-0.22776-2.9958-0.6432-4.4361-1.16-1.584-0.536-3.185-1.187-4.44-2.325-1.026-0.932-2.112-1.807-3.04-2.841-0.5226-0.602-1.1495-1.103-1.6676-1.709-2.4414-2.774-4.1921-6.049-6.2055-9.125v-2.6692c1.2764 0.24902 2.5415 0.56061 3.7804 0.95979 1.2439 0.3529 2.4227 0.9598 3.7278 1.0649 1.2839 0.14516 2.6366-0.20022 3.6227-1.0537 0.687-0.60441 1.2939-1.2914 1.9697-1.9083 4.8441-4.6288 10.513-8.448 16.77-10.884 2.7005-0.95605 5.5561-1.4866 8.423-1.5054 3.0884-0.03881 6.1705 0.49679 9.105 1.4478 1.5592 0.52308 3.1422 1.0561 4.5137 1.9859 2.1661 1.4128 4.077 3.1722 5.9465 4.9479 1.389 1.2714 2.8544 2.5165 4.5875 3.2911 0.82215 0.34287 1.7845 0.61192 2.6542 0.29033 0.2703-0.33036 0.62193-0.69076 0.57688-1.1513-0.03756-2.9457-0.61567-5.9165-1.9371-8.5631-0.46551-0.97984-1.1275-1.8608-1.5042-2.8832-0.99859-2.5203-0.86845-5.3371-0.25903-7.9337 0.47552-2.1473 1.3465-4.2108 2.6104-6.0128 1.0649-1.5192 2.514-2.8131 4.2609-3.4826z"/>
 </g>
</svg>
